<svg width="95" height="14" viewBox="0 0 95 14" fill="none" xmlns="http://www.w3.org/2000/svg">
<path d="M0 9.88057C0 8.16549 1.88288 8.22138 3.0387 9.3213L3.54202 9.80598V13.7955H0V9.88057Z" fill="#5AB9C1"/>
<path d="M3.89622 7.69916C5.46218 7.69916 6.63664 8.12798 7.69921 9.24651L12.0242 13.7953H8.10938L3.80299 9.24651C2.74043 8.10931 1.56596 7.69916 0 7.69916H3.89622Z" fill="#5AB9C1"/>
<path d="M0 0.745544H3.54202V4.73503L3.0387 5.21974C1.88288 6.31965 0 6.3756 0 4.66046V0.745544Z" fill="#A2D3DC"/>
<path d="M3.80299 5.29433L8.10938 0.745544H12.0242L7.69921 5.29433C6.63664 6.41286 5.46218 6.84163 3.89622 6.84163H0C1.56596 6.84163 2.74043 6.4315 3.80299 5.29433Z" fill="#A2D3DC"/>
<path d="M18.4546 4.15677C17.3174 4.54825 16.5717 6.22609 16.5717 8.01576C16.5717 10.1037 18.2868 11.8188 20.3747 11.8188C21.5119 11.8188 22.5372 11.3155 23.227 10.4952C22.6118 12.5086 20.7289 14 18.5292 14C15.8447 14 13.6262 11.7816 13.6262 9.09704C13.6262 6.41252 15.7701 4.15677 18.4546 4.15677ZM19.0138 4.15677C21.6424 4.15677 23.7862 5.98373 23.7862 9.05973H17.6716L20.6171 8.51909C20.6171 7.10228 20.1323 5.08889 19.0138 4.15677Z" fill="#5AB9C1"/>
<path d="M25.8358 5.77869L29.1728 4.47373V12.1917C29.1728 12.9374 29.3778 13.3475 29.6575 13.795H25.3325C25.6121 13.3475 25.8172 12.9374 25.8172 12.1917V7.38194C25.8172 6.63625 25.7799 6.26341 25.3698 5.94649L25.8358 5.77869ZM31.8945 4.28729C33.5537 4.28729 34.9518 5.44313 34.9518 6.87861V12.1917C34.9518 12.9374 35.1569 13.3475 35.4365 13.795H31.1116C31.3912 13.3475 31.5962 12.9374 31.5962 12.1917V6.87861C31.5962 6.00241 31.0929 5.01436 30.1049 5.01436C30.6828 4.51101 31.3166 4.28729 31.8945 4.28729ZM37.6736 4.28729C39.3327 4.28729 40.7309 5.44313 40.7309 6.87861V12.1917C40.7309 12.9374 40.936 13.3475 41.2156 13.795H36.8906C37.1702 13.3475 37.3753 12.9374 37.3753 12.1917V6.87861C37.3753 6.00241 36.872 5.01436 35.884 5.01436C36.4619 4.51101 37.0957 4.28729 37.6736 4.28729Z" fill="#5AB9C1"/>
<path d="M43.2278 1.67788L46.5648 0.372894V13.7955H42.7245C43.0041 13.348 43.2092 12.9379 43.2092 12.1922V3.28113C43.2092 2.53544 43.1719 2.16257 42.7618 1.84568L43.2278 1.67788ZM52.9963 9.11621C53.015 11.894 50.6661 13.9819 47.6647 13.7955C48.7832 13.5531 49.6407 11.316 49.6407 9.11621C49.6407 6.93505 48.7459 4.69796 47.646 4.47425C50.6661 4.30648 52.9963 6.37577 52.9963 9.11621Z" fill="#5AB9C1"/>
<path d="M60.2281 4.47363H60.5077C62.5025 4.47363 63.5837 5.55491 63.5837 7.54963V12.1916C63.5837 12.9373 63.7888 13.3474 64.0684 13.7949H60.2281V4.47363Z" fill="#5AB9C1"/>
<path d="M57.1151 4.6976C57.9353 4.6976 58.6064 5.36872 58.6064 6.20764C58.6064 7.02789 57.9353 7.69904 57.1151 7.69904C56.2762 7.69904 55.605 7.02792 55.605 6.20764C55.605 5.36872 56.2762 4.6976 57.1151 4.6976Z" fill="#A2D3DC"/>
<path d="M59.0168 8.76149C58.0102 8.892 57.1899 10.1224 57.1899 11.3155C57.1899 12.5273 57.9729 13.739 58.9982 13.8882C55.9782 14.1678 54.1512 13.217 54.1512 11.3155C54.1512 9.43264 55.9782 8.50052 59.0168 8.76149Z" fill="#5AB9C1"/>
<path d="M66.0812 1.67788L69.4182 0.372894V12.1922C69.4182 12.9379 69.6232 13.348 69.9028 13.7955H65.5779C65.8575 13.348 66.0625 12.9379 66.0625 12.1922V3.28113C66.0625 2.53544 66.0253 2.16257 65.6152 1.84568L66.0812 1.67788Z" fill="#5AB9C1"/>
<path d="M73.7048 0C74.7861 0 75.6623 0.876199 75.6623 1.95745C75.6623 3.03872 74.7861 3.91492 73.7048 3.91492C72.6236 3.91492 71.7474 3.03872 71.7474 1.95745C71.7474 0.876199 72.6236 0 73.7048 0Z" fill="#A2D3DC"/>
<path d="M72.0276 12.1921V7.38227C72.0276 6.63658 71.9903 6.26374 71.5801 5.94682L72.0462 5.77902L75.3832 4.47406V12.1921C75.3832 12.9377 75.5882 13.3479 75.8678 13.7953H71.5428C71.8225 13.3479 72.0276 12.9377 72.0276 12.1921Z" fill="#5AB9C1"/>
<path d="M80.043 0C81.1243 0 82.0005 0.876199 82.0005 1.95745C82.0005 3.03872 81.1243 3.91492 80.043 3.91492C78.9618 3.91492 78.0856 3.03872 78.0856 1.95745C78.0856 0.876199 78.9618 0 80.043 0Z" fill="#A2D3DC"/>
<path d="M78.3654 12.1921V7.38227C78.3654 6.63658 78.3281 6.26374 77.918 5.94682L78.3841 5.77902L81.721 4.47406V12.1921C81.721 12.9377 81.9261 13.3479 82.2057 13.7953H77.8807C78.1603 13.3479 78.3654 12.9377 78.3654 12.1921Z" fill="#5AB9C1"/>
<path d="M84.3862 5.77872L87.7231 4.47376V12.1918C87.7231 12.9374 87.9282 13.3476 88.2078 13.795H83.8829C84.1625 13.3476 84.3675 12.9374 84.3675 12.1918V7.38197C84.3675 6.63628 84.3302 6.26344 83.9202 5.94652L84.3862 5.77872ZM90.8178 4.28732C92.4769 4.28732 93.8751 5.44316 93.8751 6.87864V12.1918C93.8751 12.9374 94.0802 13.3476 94.3598 13.795H90.0348C90.3144 13.3476 90.5194 12.9374 90.5194 12.1918V6.87864C90.5194 6.00244 89.8857 5.01439 88.6553 5.01439C89.3636 4.51104 90.1094 4.28732 90.8178 4.28732Z" fill="#5AB9C1"/>
</svg>
